<svg class="svg-icon" style="width: 1em;height: 1em;vertical-align: middle;fill: currentColor;overflow: hidden;" viewBox="0 0 1024 1024" version="1.1" xmlns="http://www.w3.org/2000/svg"><path d="M168.106667 414.72c7.253333 11.52 10.24 23.04 10.24 37.973333 0 47.36-40.533333 108.8-73.386667 152.32H30.293333L0 424.96l65.706667-6.4 15.786666 128c14.933333-23.893333 33.28-61.866667 33.28-87.893333 0-14.08-2.56-23.893333-6.4-32l59.733334-11.946667z m85.333333 78.933333c11.946667 0 42.666667-5.546667 42.666667-22.613333 0-8.533333-5.973333-12.8-12.8-12.8-12.373333 0-28.16 14.933333-29.866667 35.413333z m-1.28 34.133334c0 21.333333 11.52 29.866667 27.306667 29.866666 17.066667 0 32.853333-4.266667 54.186666-14.933333l-8.106666 53.76c-14.933333 7.253333-37.973333 11.946667-60.586667 11.946667-56.746667 0-77.226667-34.133333-77.226667-77.653334 0-55.893333 33.28-115.2 101.546667-115.2 37.546667 0 58.88 20.906667 58.88 50.346667 0 46.933333-61.013333 61.866667-96 62.293333z m285.44-71.253334c0 7.253333-1.28 17.066667-2.133333 23.893334l-19.626667 124.586666h-64l17.92-114.346666 1.28-12.8c0-8.533333-5.12-10.24-11.093333-10.24-8.533333 0-17.066667 3.84-22.186667 6.4l-20.48 130.986666h-64l29.013333-186.453333h55.466667l0.853333 14.933333c13.226667-8.533333 30.72-18.346667 55.04-18.346666 32.426667 0 43.946667 17.066667 43.946667 41.813333z m189.866667-20.906666c18.346667-12.8 35.413333-20.48 59.733333-20.48 32.426667 0 43.946667 17.066667 43.946667 41.813333a170.666667 170.666667 0 0 1-2.133334 23.466667l-19.626666 124.586666h-64l18.346666-116.48 0.853334-9.386666c0-9.386667-5.12-11.52-11.52-11.52-7.68 0-15.786667 3.413333-21.333334 6.4l-20.48 130.986666h-64l18.346667-116.906666 0.853333-8.96c0-9.386667-5.12-11.52-11.52-11.52-8.533333 0-16.64 3.84-22.186666 6.4l-20.053334 130.56h-64.426666l29.44-186.026667h54.613333l2.133333 15.36c12.8-9.386667 29.866667-18.773333 52.906667-18.773333 20.48 0 33.28 8.533333 40.106667 20.48z m230.826666 54.186666c0-14.933333-3.84-25.6-14.933333-25.6-25.6 0-30.72 44.8-30.72 67.413334 0 17.493333 4.693333 28.16 16.213333 28.16 23.893333 0 29.44-46.933333 29.44-69.973334z m-110.933333 39.253334c0-58.88 31.573333-113.92 102.826667-113.92 54.186667 0 73.813333 32 73.813333 75.946666 0 58.026667-30.72 118.186667-104.106667 118.186667-54.186667 0-72.533333-35.413333-72.533333-80.213333z"  /></svg>